<svg width="424.30617675781247px" height="120.8px" xmlns="http://www.w3.org/2000/svg" viewBox="37.84691162109377 14.600000000000001 424.30617675781247 120.8" style="background: none;" preserveAspectRatio="xMidYMid"><defs><filter id="editing-lego" x="-100%" y="-100%" width="300%" height="300%"><feFlood flood-color="#ffffff" result="f1"></feFlood><feFlood flood-color="rgba(100%,100%,100%,0)" result="f2"></feFlood><feMorphology operator="dilate" radius="3" in="SourceAlpha"></feMorphology><feConvolveMatrix order="5,5" divisor="1" result="cm1" kernelMatrix="0 1 1 1 0  1 0 0 0 1  1 0 0 0 1  1 0 0 0 1  0 1 1 1 0"></feConvolveMatrix><feComposite operator="in" in="f1" in2="cm1" result="c1"></feComposite><feMorphology operator="dilate" radius="3"></feMorphology><feConvolveMatrix order="5,5" divisor="1" result="cm2" kernelMatrix="0 1 1 1 0  1 0 0 0 1  1 0 0 0 1  1 0 0 0 1  0 1 1 1 0"></feConvolveMatrix><feComposite operator="in" in="f2" in2="cm2" result="c2"></feComposite><feMerge><feMergeNode in="c2"></feMergeNode><feMergeNode in="c1"></feMergeNode><feMergeNode in="SourceGraphic"></feMergeNode></feMerge></filter></defs><g filter="url(#editing-lego)"><g transform="translate(103.23998138308525, 98.00500106811523)"><path d="M27.72-39.35L38.55 0L23.69 0L21.85-8.38L12.08-8.38L10.33 0L0.28 0L10.30-39.35L27.72-39.35ZM17.95-33.23L17.09-33.23L13.28-14.89L21.24-14.89L17.95-33.23ZM43.11 0L43.11-30.03L55.27-30.03L55.27-30.03Q55.02-29.22 54.86-28.54L54.86-28.54L54.86-28.54Q54.69-27.86 54.61-27.19L54.61-27.19L54.61-27.19Q54.52-26.52 54.48-25.84L54.48-25.84L54.48-25.84Q54.44-25.16 54.44-24.38L54.44-24.38L54.44-24.38Q55.19-25.63 56.39-26.80L56.39-26.80L56.39-26.80Q57.58-27.97 59.07-28.85L59.07-28.85L59.07-28.85Q60.56-29.72 62.25-30.25L62.25-30.25L62.25-30.25Q63.93-30.78 65.66-30.78L65.66-30.78L65.66-30.78Q67.02-30.78 68.34-30.39L68.34-30.39L68.34-30.39Q69.66-30.00 70.86-29.22L70.86-29.22L70.86-29.22Q72.06-28.44 73.06-27.30L73.06-27.30L73.06-27.30Q74.06-26.16 74.78-24.63L74.78-24.63L74.78-24.63Q75.65-25.97 77.03-27.09L77.03-27.09L77.03-27.09Q78.40-28.22 80.07-29.04L80.07-29.04L80.07-29.04Q81.74-29.86 83.62-30.32L83.62-30.32L83.62-30.32Q85.50-30.78 87.36-30.78L87.36-30.78L87.36-30.78Q90.37-30.78 92.47-29.92L92.47-29.92L92.47-29.92Q94.57-29.06 95.87-27.47L95.87-27.47L95.87-27.47Q97.16-25.88 97.75-23.66L97.75-23.66L97.75-23.66Q98.33-21.43 98.33-18.73L98.33-18.73L98.33 0L86.31 0L86.31-16.98L86.31-16.98Q86.31-17.78 86.13-18.83L86.13-18.83L86.13-18.83Q85.95-19.87 85.44-20.80L85.44-20.80L85.44-20.80Q84.94-21.74 84.07-22.38L84.07-22.38L84.07-22.38Q83.19-23.02 81.77-23.02L81.77-23.02L81.77-23.02Q80.80-23.02 79.93-22.54L79.93-22.54L79.93-22.54Q79.07-22.07 78.40-21.29L78.40-21.29L78.40-21.29Q77.73-20.51 77.35-19.51L77.35-19.51L77.35-19.51Q76.96-18.51 76.96-17.45L76.96-17.45L76.96 0L64.93 0L64.93-16.98L64.93-16.98Q64.93-18.12 64.72-19.20L64.72-19.20L64.72-19.20Q64.51-20.29 64.01-21.14L64.01-21.14L64.01-21.14Q63.51-21.99 62.65-22.50L62.65-22.50L62.65-22.50Q61.79-23.02 60.48-23.02L60.48-23.02L60.48-23.02Q59.56-23.02 58.60-22.67L58.60-22.67L58.60-22.67Q57.64-22.32 56.87-21.72L56.87-21.72L56.87-21.72Q56.11-21.12 55.62-20.29L55.62-20.29L55.62-20.29Q55.14-19.45 55.14-18.48L55.14-18.48L55.14 0L43.11 0ZM134.60-9.10L134.60-1.20L134.60-1.20Q131.98-0.33 128.95 0.24L128.95 0.24L128.95 0.24Q125.91 0.81 122.63 0.81L122.63 0.81L122.63 0.81Q119.04 0.81 115.78-0.14L115.78-0.14L115.78-0.14Q112.52-1.09 110.05-3.09L110.05-3.09L110.05-3.09Q107.57-5.09 106.11-8.17L106.11-8.17L106.11-8.17Q104.65-11.24 104.65-15.50L104.65-15.50L104.65-15.50Q104.65-17.92 105.40-20.00L105.40-20.00L105.40-20.00Q106.15-22.07 107.45-23.77L107.45-23.77L107.45-23.77Q108.74-25.47 110.48-26.77L110.48-26.77L110.48-26.77Q112.22-28.08 114.21-28.97L114.21-28.97L114.21-28.97Q116.20-29.86 118.31-30.32L118.31-30.32L118.31-30.32Q120.43-30.78 122.46-30.78L122.46-30.78L122.46-30.78Q125.66-30.78 128.11-30.07L128.11-30.07L128.11-30.07Q130.56-29.36 132.19-28.17L132.19-28.17L132.19-28.17Q133.82-26.97 134.65-25.38L134.65-25.38L134.65-25.38Q135.49-23.80 135.49-22.02L135.49-22.02L135.49-22.02Q135.49-19.84 134.75-18.31L134.75-18.31L134.75-18.31Q134.01-16.78 132.77-15.74L132.77-15.74L132.77-15.74Q131.53-14.70 129.91-14.10L129.91-14.10L129.91-14.10Q128.28-13.50 126.47-13.18L126.47-13.18L126.47-13.18Q124.66-12.86 122.78-12.77L122.78-12.77L122.78-12.77Q120.90-12.69 119.20-12.69L119.20-12.69L119.20-12.69Q118.62-12.69 118.08-12.71L118.08-12.71L118.08-12.71Q117.53-12.72 117.01-12.72L117.01-12.72L117.01-12.72Q117.23-11.13 117.88-10.05L117.88-10.05L117.88-10.05Q118.54-8.96 119.52-8.28L119.52-8.28L119.52-8.28Q120.51-7.60 121.81-7.31L121.81-7.31L121.81-7.31Q123.10-7.01 124.58-7.01L124.58-7.01L124.58-7.01Q125.69-7.01 126.96-7.18L126.96-7.18L126.96-7.18Q128.22-7.35 129.52-7.64L129.52-7.64L129.52-7.64Q130.81-7.93 132.10-8.31L132.10-8.31L132.10-8.31Q133.40-8.68 134.60-9.10L134.60-9.10ZM116.76-17.01L116.76-17.01L116.76-17.01Q117.42-17.03 118.47-17.09L118.47-17.09L118.47-17.09Q119.51-17.14 120.68-17.28L120.68-17.28L120.68-17.28Q121.85-17.42 123.02-17.67L123.02-17.67L123.02-17.67Q124.19-17.92 125.13-18.31L125.13-18.31L125.13-18.31Q126.08-18.70 126.66-19.29L126.66-19.29L126.66-19.29Q127.25-19.87 127.25-20.71L127.25-20.71L127.25-20.71Q127.25-22.13 126.12-22.98L126.12-22.98L126.12-22.98Q124.99-23.82 122.99-23.82L122.99-23.82L122.99-23.82Q122.07-23.82 121.01-23.56L121.01-23.56L121.01-23.56Q119.96-23.30 119.04-22.54L119.04-22.54L119.04-22.54Q118.12-21.79 117.48-20.46L117.48-20.46L117.48-20.46Q116.84-19.12 116.76-17.01ZM142.86 0L142.86-30.03L154.30-30.03L154.30-30.03Q154.25-29.31 154.22-28.43L154.22-28.43L154.22-28.43Q154.19-27.55 154.19-26.59L154.19-26.59L154.19-26.59Q154.19-25.63 154.19-24.66L154.19-24.66L154.19-24.66Q154.19-23.69 154.19-22.79L154.19-22.79L154.19-22.79Q154.75-24.16 155.64-25.59L155.64-25.59L155.64-25.59Q156.53-27.02 157.74-28.17L157.74-28.17L157.74-28.17Q158.95-29.31 160.49-30.04L160.49-30.04L160.49-30.04Q162.04-30.78 163.96-30.78L163.96-30.78L163.96-30.78Q164.32-30.78 164.75-30.74L164.75-30.74L164.75-30.74Q165.18-30.70 165.60-30.62L165.60-30.62L165.60-30.62Q166.02-30.53 166.39-30.41L166.39-30.41L166.39-30.41Q166.77-30.28 167.02-30.11L167.02-30.11L166.05-18.65L166.05-18.65Q164.79-19.12 163.40-19.36L163.40-19.36L163.40-19.36Q162.01-19.59 160.98-19.59L160.98-19.59L160.98-19.59Q159.56-19.59 158.49-19.25L158.49-19.25L158.49-19.25Q157.42-18.90 156.67-18.34L156.67-18.34L156.67-18.34Q155.92-17.78 155.48-17.12L155.48-17.12L155.48-17.12Q155.05-16.45 154.89-15.81L154.89-15.81L154.89 0L142.86 0ZM172.25 0L172.25-30.03L184.28-30.03L184.28 0L172.25 0ZM178.29-36.21L178.29-36.21L178.29-36.21Q176.71-36.21 175.31-36.54L175.31-36.54L175.31-36.54Q173.92-36.88 172.91-37.46L172.91-37.46L172.91-37.46Q171.89-38.05 171.29-38.88L171.29-38.88L171.29-38.88Q170.69-39.72 170.69-40.72L170.69-40.72L170.69-40.72Q170.69-41.83 171.28-42.68L171.28-42.68L171.28-42.68Q171.86-43.53 172.89-44.09L172.89-44.09L172.89-44.09Q173.92-44.64 175.31-44.92L175.31-44.92L175.31-44.92Q176.71-45.20 178.32-45.20L178.32-45.20L178.32-45.20Q179.93-45.20 181.34-44.92L181.34-44.92L181.34-44.92Q182.75-44.64 183.77-44.09L183.77-44.09L183.77-44.09Q184.80-43.53 185.39-42.68L185.39-42.68L185.39-42.68Q185.97-41.83 185.97-40.72L185.97-40.72L185.97-40.72Q185.97-39.72 185.38-38.88L185.38-38.88L185.38-38.88Q184.78-38.05 183.75-37.46L183.75-37.46L183.75-37.46Q182.72-36.88 181.31-36.54L181.31-36.54L181.31-36.54Q179.91-36.21 178.29-36.21ZM206.76-23.02L206.76 0L194.74 0L194.74-23.02L189.95-23.02L189.95-30.03L194.69-30.03L194.69-30.03Q194.69-33.45 195.60-36.00L195.60-36.00L195.60-36.00Q196.52-38.55 198.22-40.25L198.22-40.25L198.22-40.25Q199.92-41.94 202.32-42.79L202.32-42.79L202.32-42.79Q204.73-43.64 207.74-43.64L207.74-43.64L207.74-43.64Q210.19-43.64 212.27-43.11L212.27-43.11L212.27-43.11Q214.36-42.58 216.12-41.86L216.12-41.86L215.23-34.71L215.23-34.71Q213.61-35.10 212.54-35.36L212.54-35.36L212.54-35.36Q211.47-35.63 210.47-35.63L210.47-35.63L210.47-35.63Q209.19-35.63 208.45-35.15L208.45-35.15L208.45-35.15Q207.71-34.68 207.33-33.90L207.33-33.90L207.33-33.90Q206.96-33.12 206.86-32.10L206.86-32.10L206.86-32.10Q206.76-31.09 206.76-30.03L206.76-30.03L215.17-30.03L215.17-30.03Q214.78-28.19 214.56-26.50L214.56-26.50L214.56-26.50Q214.33-24.80 214.33-23.02L214.33-23.02L206.76-23.02ZM227.19 0.81L227.19 0.81L227.19 0.81Q225.41 0.81 223.78 0.31L223.78 0.31L223.78 0.31Q222.16-0.19 220.90-1.22L220.90-1.22L220.90-1.22Q219.65-2.25 218.91-3.83L218.91-3.83L218.91-3.83Q218.18-5.40 218.18-7.54L218.18-7.54L218.18-7.54Q218.18-9.60 218.84-11.12L218.84-11.12L218.84-11.12Q219.51-12.64 220.64-13.72L220.64-13.72L220.64-13.72Q221.77-14.81 223.28-15.52L223.28-15.52L223.28-15.52Q224.80-16.23 226.50-16.63L226.50-16.63L226.50-16.63Q228.19-17.03 229.99-17.19L229.99-17.19L229.99-17.19Q231.79-17.34 233.48-17.34L233.48-17.34L233.48-17.34Q234.65-17.34 235.74-17.28L235.74-17.28L235.74-17.28Q236.82-17.23 237.77-17.14L237.77-17.14L237.77-17.14Q237.71-18.90 237.10-20.05L237.10-20.05L237.10-20.05Q236.49-21.21 235.49-21.89L235.49-21.89L235.49-21.89Q234.48-22.57 233.15-22.85L233.15-22.85L233.15-22.85Q231.81-23.13 230.34-23.13L230.34-23.13L230.34-23.13Q228.97-23.13 227.54-22.95L227.54-22.95L227.54-22.95Q226.11-22.77 224.74-22.50L224.74-22.50L224.74-22.50Q223.38-22.24 222.14-21.93L222.14-21.93L222.14-21.93Q220.90-21.63 219.96-21.38L219.96-21.38L219.96-29.17L219.96-29.17Q221.32-29.47 222.89-29.77L222.89-29.77L222.89-29.77Q224.47-30.06 226.16-30.28L226.16-30.28L226.16-30.28Q227.86-30.50 229.63-30.64L229.63-30.64L229.63-30.64Q231.40-30.78 233.12-30.78L233.12-30.78L233.12-30.78Q235.26-30.78 237.34-30.52L237.34-30.52L237.34-30.52Q239.41-30.25 241.26-29.64L241.26-29.64L241.26-29.64Q243.11-29.03 244.69-28.00L244.69-28.00L244.69-28.00Q246.26-26.97 247.39-25.45L247.39-25.45L247.39-25.45Q248.51-23.94 249.15-21.88L249.15-21.88L249.15-21.88Q249.79-19.82 249.79-17.12L249.79-17.12L249.79 0L238.33 0L238.33-4.98L238.33-4.98Q237.66-3.62 236.46-2.55L236.46-2.55L236.46-2.55Q235.26-1.48 233.76-0.72L233.76-0.72L233.76-0.72Q232.26 0.03 230.56 0.42L230.56 0.42L230.56 0.42Q228.86 0.81 227.19 0.81ZM231.90-5.73L231.90-5.73L231.90-5.73Q232.68-5.73 233.69-6.16L233.69-6.16L233.69-6.16Q234.71-6.60 235.61-7.49L235.61-7.49L235.61-7.49Q236.52-8.38 237.14-9.74L237.14-9.74L237.14-9.74Q237.77-11.10 237.77-13.00L237.77-13.00L236.85-13.00L236.85-13.00Q235.51-13.00 234.11-12.72L234.11-12.72L234.11-12.72Q232.70-12.44 231.53-11.88L231.53-11.88L231.53-11.88Q230.37-11.33 229.61-10.52L229.61-10.52L229.61-10.52Q228.86-9.71 228.86-8.66L228.86-8.66L228.86-8.66Q228.86-7.82 229.14-7.26L229.14-7.26L229.14-7.26Q229.42-6.71 229.85-6.36L229.85-6.36L229.85-6.36Q230.28-6.01 230.82-5.87L230.82-5.87L230.82-5.87Q231.37-5.73 231.90-5.73ZM257.86 0L257.86-30.03L269.89-30.03L269.89-30.03Q269.72-29.08 269.55-27.60L269.55-27.60L269.55-27.60Q269.39-26.11 269.39-24.52L269.39-24.52L269.39-24.52Q270.33-25.94 271.77-27.09L271.77-27.09L271.77-27.09Q273.20-28.25 274.92-29.07L274.92-29.07L274.92-29.07Q276.65-29.89 278.58-30.34L278.58-30.34L278.58-30.34Q280.52-30.78 282.50-30.78L282.50-30.78L282.50-30.78Q284.67-30.78 286.61-30.13L286.61-30.13L286.61-30.13Q288.56-29.47 290.04-28.05L290.04-28.05L290.04-28.05Q291.51-26.64 292.38-24.37L292.38-24.37L292.38-24.37Q293.24-22.10 293.24-18.87L293.24-18.87L293.24 0L281.21 0L281.21-17.12L281.21-17.12Q281.21-18.84 280.85-19.98L280.85-19.98L280.85-19.98Q280.49-21.12 279.85-21.79L279.85-21.79L279.85-21.79Q279.21-22.46 278.33-22.74L278.33-22.74L278.33-22.74Q277.46-23.02 276.43-23.02L276.43-23.02L276.43-23.02Q275.31-23.02 274.23-22.64L274.23-22.64L274.23-22.64Q273.14-22.27 272.25-21.63L272.25-21.63L272.25-21.63Q271.36-20.99 270.72-20.12L270.72-20.12L270.72-20.12Q270.08-19.26 269.89-18.29L269.89-18.29L269.89 0L257.86 0Z" fill="#0060b1"></path></g></g><style>text {
  font-size: 64px;
  font-family: Arial Black;
  dominant-baseline: central;
  text-anchor: middle;
}</style></svg>